<svg width="143" height="30" viewBox="0 0 143 30" fill="none" xmlns="http://www.w3.org/2000/svg">
<path d="M7.01465 15.8263L9.68945 9.35947H14.0293L9.06641 19.4356V25.0001H4.97363V19.4356L0 9.35947H4.33984L7.01465 15.8263Z" fill="#EE2B69"/>
<path d="M27.8867 19.6183C27.8438 20.7211 27.5501 21.6951 27.0059 22.5401C26.4616 23.378 25.7061 24.0333 24.7393 24.506C23.7796 24.9786 22.6481 25.2149 21.3447 25.2149C19.9339 25.2149 18.7272 24.907 17.7246 24.2911C16.722 23.6681 15.9557 22.78 15.4258 21.6271C14.903 20.4741 14.6416 19.0991 14.6416 17.5021V16.8683C14.6416 15.2641 14.9173 13.8855 15.4688 12.7325C16.0202 11.5795 16.79 10.6915 17.7783 10.0685C18.7738 9.44541 19.9411 9.13389 21.2803 9.13389C22.6696 9.13389 23.8369 9.38454 24.7822 9.88584C25.7347 10.3871 26.4688 11.0711 26.9844 11.9376C27.5072 12.8041 27.8151 13.7817 27.9082 14.8702H23.8906C23.8763 14.0538 23.6794 13.4451 23.2998 13.044C22.9202 12.643 22.2471 12.4425 21.2803 12.4425C20.7002 12.4425 20.2204 12.5821 19.8408 12.8614C19.4684 13.1336 19.1891 13.5919 19.0029 14.2364C18.8239 14.8738 18.7344 15.7439 18.7344 16.8468V17.5021C18.7344 18.6121 18.8132 19.4894 18.9707 20.1339C19.1354 20.7713 19.4076 21.226 19.7871 21.4981C20.1738 21.7703 20.693 21.9063 21.3447 21.9063C21.8818 21.9063 22.3366 21.8276 22.709 21.67C23.0814 21.5125 23.3643 21.2654 23.5576 20.9288C23.7581 20.5922 23.862 20.1554 23.8691 19.6183H27.8867Z" fill="#EE2B69"/>
<path d="M31.2275 25.0001V21.756H34.6758C35.3561 21.756 35.929 21.5984 36.3945 21.2833C36.86 20.9682 37.2145 20.492 37.458 19.8546C37.7015 19.2172 37.8232 18.4151 37.8232 17.4483V16.9005C37.8232 15.9409 37.7015 15.1459 37.458 14.5157C37.2217 13.8784 36.8636 13.4021 36.3838 13.087C35.9111 12.7719 35.3203 12.6144 34.6113 12.6144H31.1631V9.35947H34.6113C36.0436 9.35947 37.3076 9.68174 38.4033 10.3263C39.5062 10.9708 40.3691 11.8624 40.9922 13.0011C41.6152 14.1326 41.9268 15.4396 41.9268 16.922V17.4483C41.9268 18.9236 41.6152 20.2306 40.9922 21.3692C40.3691 22.5079 39.5133 23.3995 38.4248 24.044C37.3363 24.6814 36.0866 25.0001 34.6758 25.0001H31.2275ZM33.5586 25.0001H29.5195V9.35947H33.5586V25.0001Z" fill="black"/>
<path d="M45.6973 8.5001C46.3346 8.5001 46.8467 8.67914 47.2334 9.03721C47.6273 9.39528 47.8242 9.86078 47.8242 10.4337C47.8242 10.9994 47.6273 11.4649 47.2334 11.8302C46.8467 12.1883 46.3346 12.3673 45.6973 12.3673C45.0671 12.3673 44.555 12.1883 44.1611 11.8302C43.7673 11.4649 43.5703 10.9994 43.5703 10.4337C43.5703 9.86078 43.7673 9.39528 44.1611 9.03721C44.555 8.67914 45.0671 8.5001 45.6973 8.5001ZM47.6416 25.0001H43.7529V13.3771H47.6416V25.0001Z" fill="black"/>
<path d="M53.6143 25.0001H49.7471V13.3771H53.3564L53.6143 16.4815V25.0001ZM56.9014 17.0724C56.751 17.058 56.5469 17.0401 56.2891 17.0187C56.0384 16.9972 55.8343 16.9864 55.6768 16.9864C55.1325 16.9864 54.6885 17.058 54.3447 17.2013C54.0081 17.3373 53.7646 17.5522 53.6143 17.8458C53.4639 18.1394 53.3923 18.5261 53.3994 19.006L52.7227 18.4259C52.7227 17.3731 52.8551 16.4529 53.1201 15.6651C53.3851 14.8702 53.7575 14.2543 54.2373 13.8175C54.7243 13.3806 55.2936 13.1622 55.9453 13.1622C56.1243 13.1622 56.3034 13.173 56.4824 13.1944C56.6686 13.2088 56.8298 13.241 56.9658 13.2911L56.9014 17.0724Z" fill="black"/>
<path d="M63.8838 25.2149C62.5947 25.2149 61.4954 24.9536 60.5859 24.4308C59.6836 23.908 58.9961 23.2205 58.5234 22.3683C58.0508 21.5089 57.8145 20.5815 57.8145 19.586V19.1886C57.8145 18.0785 58.0221 17.0688 58.4375 16.1593C58.8529 15.2426 59.4795 14.5157 60.3174 13.9786C61.1553 13.4343 62.208 13.1622 63.4756 13.1622C64.5999 13.1622 65.5596 13.395 66.3545 13.8605C67.1494 14.3188 67.7581 14.9776 68.1807 15.837C68.6104 16.6892 68.8252 17.7097 68.8252 18.8985V20.5206H59.2646V18.0392H65.0439V17.7276C65.0511 17.391 64.9938 17.1153 64.8721 16.9005C64.7503 16.6856 64.5677 16.5281 64.3242 16.4278C64.0879 16.3276 63.7943 16.2774 63.4434 16.2774C62.9421 16.2774 62.5661 16.4171 62.3154 16.6964C62.0648 16.9757 61.8965 17.3373 61.8105 17.7813C61.7246 18.2182 61.6816 18.6873 61.6816 19.1886V19.586C61.6816 20.1017 61.7783 20.5493 61.9717 20.9288C62.165 21.3012 62.4443 21.5877 62.8096 21.7882C63.182 21.9887 63.626 22.089 64.1416 22.089C64.6143 22.089 65.0869 22.0066 65.5596 21.8419C66.0394 21.6772 66.444 21.3871 66.7734 20.9718L68.5137 23.1954C68.1556 23.6967 67.5755 24.1586 66.7734 24.5812C65.9785 25.0037 65.0153 25.2149 63.8838 25.2149Z" fill="black"/>
<path d="M75.2598 25.2149C74.0352 25.2149 73.0146 24.9571 72.1982 24.4415C71.389 23.9259 70.7803 23.2241 70.3721 22.336C69.9639 21.4409 69.7598 20.4275 69.7598 19.296V19.0919C69.7598 17.9604 69.9603 16.947 70.3613 16.0519C70.7695 15.1567 71.3783 14.4513 72.1875 13.9356C73.0039 13.42 74.0208 13.1622 75.2383 13.1622C76.2266 13.1622 77.0931 13.3484 77.8379 13.7208C78.5898 14.086 79.1771 14.6231 79.5996 15.3321C80.0221 16.0411 80.2262 16.9077 80.2119 17.9317H76.5918C76.599 17.631 76.5524 17.3552 76.4521 17.1046C76.359 16.8539 76.2051 16.6534 75.9902 16.503C75.7754 16.3526 75.4925 16.2774 75.1416 16.2774C74.6904 16.2774 74.3574 16.4063 74.1426 16.6642C73.9277 16.9148 73.7881 17.255 73.7236 17.6847C73.6592 18.1072 73.627 18.5763 73.627 19.0919V19.296C73.627 19.8259 73.6556 20.3022 73.7129 20.7247C73.7773 21.1472 73.9206 21.4838 74.1426 21.7345C74.3646 21.978 74.7083 22.0997 75.1738 22.0997C75.4889 22.0997 75.7539 22.046 75.9688 21.9386C76.1836 21.8312 76.3411 21.6772 76.4414 21.4767C76.5488 21.269 76.599 21.0219 76.5918 20.7355H80.2119C80.2262 21.645 80.015 22.4363 79.5781 23.1095C79.1484 23.7755 78.5576 24.2947 77.8057 24.6671C77.0609 25.0323 76.2122 25.2149 75.2598 25.2149Z" fill="black"/>
<path d="M87.9678 16.17H80.8242V13.3771H87.9678V16.17ZM86.1094 10.4874V20.9933C86.1094 21.2654 86.1416 21.4802 86.2061 21.6378C86.2705 21.7882 86.3851 21.8956 86.5498 21.9601C86.7217 22.0245 86.9544 22.0567 87.248 22.0567C87.4486 22.0567 87.6169 22.0532 87.7529 22.046C87.889 22.0388 88.0143 22.0245 88.1289 22.003V24.8819C87.7995 24.9965 87.4629 25.0789 87.1191 25.129C86.7826 25.1863 86.4137 25.2149 86.0127 25.2149C85.2106 25.2149 84.5267 25.0896 83.9609 24.839C83.4023 24.5812 82.9762 24.1837 82.6826 23.6466C82.389 23.1023 82.2422 22.4041 82.2422 21.5519V10.4874H86.1094Z" fill="black"/>
<path d="M88.623 19.0919C88.623 17.9532 88.8379 16.9399 89.2676 16.0519C89.6973 15.1567 90.3311 14.4513 91.1689 13.9356C92.0068 13.42 93.0381 13.1622 94.2627 13.1622C95.5016 13.1622 96.54 13.42 97.3779 13.9356C98.223 14.4513 98.8568 15.1567 99.2793 16.0519C99.709 16.9399 99.9238 17.9532 99.9238 19.0919V19.296C99.9238 20.4275 99.709 21.4409 99.2793 22.336C98.8568 23.2312 98.2266 23.9366 97.3887 24.4522C96.5508 24.9607 95.516 25.2149 94.2842 25.2149C93.0524 25.2149 92.014 24.9607 91.1689 24.4522C90.3311 23.9366 89.6973 23.2312 89.2676 22.336C88.8379 21.4409 88.623 20.4275 88.623 19.296V19.0919ZM92.501 19.296C92.501 19.8259 92.5475 20.3058 92.6406 20.7355C92.7409 21.158 92.9199 21.491 93.1777 21.7345C93.4355 21.978 93.8044 22.0997 94.2842 22.0997C94.7568 22.0997 95.1221 21.978 95.3799 21.7345C95.6377 21.491 95.8131 21.158 95.9062 20.7355C96.0065 20.3058 96.0566 19.8259 96.0566 19.296V19.0919C96.0566 18.5763 96.0065 18.1072 95.9062 17.6847C95.8131 17.255 95.6377 16.9148 95.3799 16.6642C95.1221 16.4063 94.7497 16.2774 94.2627 16.2774C93.79 16.2774 93.4248 16.4063 93.167 16.6642C92.9163 16.9148 92.7409 17.255 92.6406 17.6847C92.5475 18.1072 92.501 18.5763 92.501 19.0919V19.296Z" fill="black"/>
<path d="M105.327 25.0001H101.46V13.3771H105.069L105.327 16.4815V25.0001ZM108.614 17.0724C108.464 17.058 108.26 17.0401 108.002 17.0187C107.751 16.9972 107.547 16.9864 107.39 16.9864C106.845 16.9864 106.401 17.058 106.058 17.2013C105.721 17.3373 105.478 17.5522 105.327 17.8458C105.177 18.1394 105.105 18.5261 105.112 19.006L104.436 18.4259C104.436 17.3731 104.568 16.4529 104.833 15.6651C105.098 14.8702 105.47 14.2543 105.95 13.8175C106.437 13.3806 107.007 13.1622 107.658 13.1622C107.837 13.1622 108.016 13.173 108.195 13.1944C108.382 13.2088 108.543 13.241 108.679 13.2911L108.614 17.0724Z" fill="black"/>
<path d="M116.349 13.3771H120.495L115.865 26.7081C115.765 27.0017 115.629 27.3204 115.457 27.6642C115.285 28.0079 115.052 28.3338 114.759 28.6417C114.472 28.9496 114.1 29.2003 113.642 29.3937C113.19 29.5942 112.628 29.6944 111.955 29.6944C111.712 29.6944 111.518 29.6873 111.375 29.673C111.232 29.6658 111.092 29.6443 110.956 29.6085C110.82 29.5727 110.637 29.5261 110.408 29.4688V26.5899C110.494 26.5899 110.566 26.5864 110.623 26.5792C110.688 26.5792 110.763 26.5792 110.849 26.5792C111.422 26.5792 111.823 26.5076 112.052 26.3644C112.288 26.2283 112.453 26.0385 112.546 25.795L113.405 23.5929L116.349 13.3771ZM115.07 21.1866L115.468 25.505L112.89 25.3653L108.797 13.3771H112.943L115.07 21.1866Z" fill="black"/>
<path d="M141.968 14.5656C142.304 15.1358 141.974 15.8978 140.905 16.7525C139.721 17.69 138.501 18.5841 137.298 19.5001C136.813 20.1628 136.108 20.4967 135.347 20.6386C134.044 20.894 133.155 19.8134 133.664 18.5909C133.94 17.9302 134.276 17.2564 135.041 16.9921C136.355 15.8857 137.83 15.0183 139.406 14.3518C140.638 13.8313 141.604 13.9568 141.968 14.5656Z" fill="black"/>
<path d="M133.114 8.42935C132.747 8.66101 132.371 8.92099 132.093 9.2487C130.858 10.7012 129.641 12.1712 128.717 13.8518C128.53 14.1903 128.378 14.559 128.278 14.9318C128.128 15.4945 128.249 16.0064 128.764 16.3512C129.274 16.6926 129.777 16.5988 130.276 16.2952C130.661 16.0618 130.973 15.7498 131.219 15.3862C131.684 14.6988 132.118 13.9911 132.386 13.5708C132.99 12.5201 133.446 11.7668 133.857 10.99C134.107 10.5171 134.321 10.0187 134.492 9.51072C134.621 9.12782 134.577 8.7281 134.216 8.45178C133.861 8.17952 133.463 8.21156 133.114 8.42935Z" fill="black"/>
<path d="M124.904 4.70134C125.081 5.24328 125.324 5.79569 125.118 6.39633L125.126 6.40102C125.416 8.38557 125.687 10.3681 125.46 12.3771C125.395 12.9531 125.274 13.5347 125.124 14.0975C124.981 14.665 124.602 15.0295 124.002 15.1168C123.402 15.2044 122.975 14.8897 122.639 14.4345C122.324 13.9933 122.177 13.4705 122.067 12.9394C121.68 11.1546 121.723 9.35197 121.854 7.54273C121.587 6.61886 121.801 5.70993 122.014 4.82073C122.191 4.11816 122.616 3.58429 123.407 3.52445C124.054 3.47856 124.642 3.91681 124.904 4.70134Z" fill="black"/>
</svg>
